<svg xmlns="http://www.w3.org/2000/svg" xmlns:xlink="http://www.w3.org/1999/xlink" width="940" zoomAndPan="magnify" viewBox="0 0 705 591.000005" height="788" preserveAspectRatio="xMidYMid meet" version="1.0"><defs><g/><clipPath id="f676a56d04"><path d="M 0.59375 0 L 704.402344 0 L 704.402344 590 L 0.59375 590 Z M 0.59375 0 " clip-rule="nonzero"/></clipPath><clipPath id="88354e7929"><path d="M 48.832031 226.734375 L 93.757812 226.734375 L 93.757812 316.582031 L 48.832031 316.582031 Z M 48.832031 226.734375 " clip-rule="nonzero"/></clipPath><clipPath id="d4dc785a6f"><path d="M 4.789062 200.085938 L 49.714844 200.085938 L 49.714844 289.933594 L 4.789062 289.933594 Z M 4.789062 200.085938 " clip-rule="nonzero"/></clipPath><clipPath id="b2d89827c5"><path d="M 39.84375 249.3125 L 59.3125 249.3125 L 59.3125 268.78125 L 39.84375 268.78125 Z M 39.84375 249.3125 " clip-rule="nonzero"/></clipPath></defs><g clip-path="url(#f676a56d04)"><path fill="#ffffff" d="M 0.59375 0 L 704.40625 0 L 704.40625 597.488281 L 0.59375 597.488281 Z M 0.59375 0 " fill-opacity="1" fill-rule="nonzero"/><path fill="#ffffff" d="M 0.59375 0 L 704.40625 0 L 704.40625 590 L 0.59375 590 Z M 0.59375 0 " fill-opacity="1" fill-rule="nonzero"/><path fill="#f9fefd" d="M 0.59375 0 L 704.40625 0 L 704.40625 590 L 0.59375 590 Z M 0.59375 0 " fill-opacity="1" fill-rule="nonzero"/></g><g clip-path="url(#88354e7929)"><path fill="#47568c" d="M 48.832031 226.773438 C 73.648438 226.773438 93.757812 246.882812 93.757812 271.699219 C 93.757812 296.511719 73.648438 316.546875 48.832031 316.546875 Z M 48.832031 226.773438 " fill-opacity="1" fill-rule="nonzero"/></g><g clip-path="url(#d4dc785a6f)"><path fill="#9ac3f4" d="M 49.714844 289.894531 C 24.898438 289.894531 4.789062 269.785156 4.789062 244.96875 C 4.789062 220.15625 24.898438 200.121094 49.714844 200.121094 Z M 49.714844 289.894531 " fill-opacity="1" fill-rule="nonzero"/></g><g clip-path="url(#b2d89827c5)"><path fill="#f9fefd" d="M 59.3125 259.046875 C 59.3125 259.6875 59.25 260.320312 59.125 260.945312 C 59 261.574219 58.8125 262.183594 58.570312 262.773438 C 58.324219 263.363281 58.023438 263.925781 57.671875 264.457031 C 57.316406 264.988281 56.910156 265.476562 56.460938 265.929688 C 56.007812 266.382812 55.515625 266.785156 54.984375 267.140625 C 54.453125 267.496094 53.890625 267.796875 53.300781 268.039062 C 52.710938 268.285156 52.101562 268.46875 51.476562 268.59375 C 50.847656 268.71875 50.214844 268.78125 49.578125 268.78125 C 48.9375 268.78125 48.304688 268.71875 47.679688 268.59375 C 47.050781 268.46875 46.441406 268.285156 45.851562 268.039062 C 45.261719 267.796875 44.699219 267.496094 44.167969 267.140625 C 43.636719 266.785156 43.144531 266.382812 42.695312 265.929688 C 42.242188 265.476562 41.839844 264.988281 41.484375 264.457031 C 41.128906 263.925781 40.828125 263.363281 40.585938 262.773438 C 40.339844 262.183594 40.15625 261.574219 40.03125 260.945312 C 39.90625 260.320312 39.84375 259.6875 39.84375 259.046875 C 39.84375 258.410156 39.90625 257.777344 40.03125 257.148438 C 40.15625 256.523438 40.339844 255.914062 40.585938 255.324219 C 40.828125 254.730469 41.128906 254.171875 41.484375 253.640625 C 41.839844 253.109375 42.242188 252.617188 42.695312 252.164062 C 43.144531 251.714844 43.636719 251.308594 44.167969 250.953125 C 44.699219 250.597656 45.261719 250.300781 45.851562 250.054688 C 46.441406 249.808594 47.050781 249.625 47.679688 249.5 C 48.304688 249.375 48.9375 249.3125 49.578125 249.3125 C 50.214844 249.3125 50.847656 249.375 51.476562 249.5 C 52.101562 249.625 52.710938 249.808594 53.300781 250.054688 C 53.890625 250.300781 54.453125 250.597656 54.984375 250.953125 C 55.515625 251.308594 56.007812 251.714844 56.460938 252.164062 C 56.910156 252.617188 57.316406 253.109375 57.671875 253.640625 C 58.023438 254.171875 58.324219 254.730469 58.570312 255.324219 C 58.8125 255.914062 59 256.523438 59.125 257.148438 C 59.25 257.777344 59.3125 258.410156 59.3125 259.046875 Z M 59.3125 259.046875 " fill-opacity="1" fill-rule="nonzero"/></g><g fill="#3b5998" fill-opacity="1"><g transform="translate(108.510634, 303.41897)"><g><path d="M 7.953125 0 L 37.585938 0 L 37.585938 -26.203125 C 37.585938 -45.695312 46.320312 -54.585938 61.761719 -54.585938 L 64.257812 -54.585938 L 64.257812 -85.777344 C 50.21875 -86.402344 42.421875 -78.917969 37.585938 -67.375 L 37.585938 -84.375 L 7.953125 -84.375 Z M 7.953125 0 "/></g></g></g><g fill="#3b5998" fill-opacity="1"><g transform="translate(166.059242, 303.41897)"><g><path d="M 49.75 2.027344 C 66.59375 2.027344 78.292969 -4.835938 86.402344 -15.128906 L 70.027344 -28.695312 C 63.945312 -22.769531 58.328125 -20.117188 51.3125 -20.117188 C 42.109375 -20.117188 35.402344 -24.796875 33.0625 -34 L 89.523438 -34 C 89.675781 -36.027344 89.675781 -38.210938 89.675781 -40.082031 C 89.675781 -64.878906 76.265625 -86.246094 47.101562 -86.246094 C 22.144531 -86.246094 4.523438 -66.75 4.523438 -42.109375 L 4.523438 -41.796875 C 4.523438 -15.597656 23.238281 2.027344 49.75 2.027344 Z M 32.597656 -49.128906 C 34.15625 -58.328125 39.457031 -64.410156 47.257812 -64.410156 C 55.367188 -64.410156 60.824219 -58.484375 61.917969 -49.128906 Z M 32.597656 -49.128906 "/></g></g></g><g fill="#3b5998" fill-opacity="1"><g transform="translate(251.212538, 303.41897)"><g><path d="M 7.953125 0 L 37.585938 0 L 37.585938 -45.851562 C 37.585938 -55.054688 42.578125 -59.890625 49.59375 -59.890625 C 56.613281 -59.890625 61.136719 -55.054688 61.136719 -45.851562 L 61.136719 0 L 90.769531 0 L 90.769531 -45.851562 C 90.769531 -55.054688 95.917969 -59.890625 102.933594 -59.890625 C 109.953125 -59.890625 114.476562 -55.054688 114.476562 -45.851562 L 114.476562 0 L 144.109375 0 L 144.109375 -55.367188 C 144.109375 -75.015625 133.191406 -86.246094 115.253906 -86.246094 C 102.933594 -86.246094 94.355469 -80.945312 87.027344 -72.523438 C 82.503906 -81.253906 73.925781 -86.246094 62.695312 -86.246094 C 50.84375 -86.246094 43.046875 -79.851562 37.585938 -72.832031 L 37.585938 -84.375 L 7.953125 -84.375 Z M 7.953125 0 "/></g></g></g><g fill="#3b5998" fill-opacity="1"><g transform="translate(393.446711, 303.41897)"><g><path d="M 7.953125 24.953125 L 37.585938 24.953125 L 37.585938 -10.292969 C 43.046875 -3.898438 50.53125 1.871094 63.320312 1.871094 C 83.285156 1.871094 100.59375 -14.816406 100.59375 -42.265625 L 100.59375 -42.578125 C 100.59375 -69.558594 83.285156 -86.246094 63.164062 -86.246094 C 50.53125 -86.246094 43.355469 -80.164062 37.585938 -73.144531 L 37.585938 -84.375 L 7.953125 -84.375 Z M 54.117188 -22.925781 C 44.605469 -22.925781 36.960938 -30.878906 36.960938 -42.109375 L 36.960938 -42.421875 C 36.960938 -53.496094 44.605469 -61.449219 54.117188 -61.449219 C 63.789062 -61.449219 71.429688 -53.496094 71.429688 -42.421875 L 71.429688 -42.109375 C 71.429688 -30.722656 63.789062 -22.925781 54.117188 -22.925781 Z M 54.117188 -22.925781 "/></g></g></g><g fill="#9ac3f4" fill-opacity="1"><g transform="translate(489.662569, 303.41897)"><g><path d="M 51 2.027344 C 78.136719 2.027344 97.789062 -18.089844 97.789062 -42.109375 L 97.789062 -42.421875 C 97.789062 -66.4375 78.292969 -86.246094 51.3125 -86.246094 C 24.175781 -86.246094 4.523438 -66.128906 4.523438 -42.109375 L 4.523438 -41.796875 C 4.523438 -17.78125 24.019531 2.027344 51 2.027344 Z M 51.3125 -23.082031 C 40.863281 -23.082031 33.375 -31.816406 33.375 -42.109375 L 33.375 -42.421875 C 33.375 -52.558594 40.238281 -61.136719 51 -61.136719 C 61.449219 -61.136719 68.933594 -52.402344 68.933594 -42.109375 L 68.933594 -41.796875 C 68.933594 -31.660156 62.074219 -23.082031 51.3125 -23.082031 Z M 51.3125 -23.082031 "/></g></g></g><g fill="#3b5998" fill-opacity="1"><g transform="translate(582.762849, 303.41897)"><g><path d="M 7.953125 0 L 37.585938 0 L 37.585938 -26.203125 C 37.585938 -45.695312 46.320312 -54.585938 61.761719 -54.585938 L 64.257812 -54.585938 L 64.257812 -85.777344 C 50.21875 -86.402344 42.421875 -78.917969 37.585938 -67.375 L 37.585938 -84.375 L 7.953125 -84.375 Z M 7.953125 0 "/></g></g></g><g fill="#3b5998" fill-opacity="1"><g transform="translate(640.311456, 303.41897)"><g><path d="M 41.484375 1.714844 C 49.75 1.714844 56.769531 -0.15625 62.074219 -3.121094 L 62.074219 -26.359375 C 58.484375 -24.640625 54.742188 -23.550781 50.84375 -23.550781 C 45.382812 -23.550781 42.734375 -26.046875 42.734375 -31.972656 L 42.734375 -60.511719 L 62.382812 -60.511719 L 62.382812 -84.375 L 42.734375 -84.375 L 42.734375 -105.742188 L 13.101562 -105.742188 L 13.101562 -84.375 L 3.121094 -84.375 L 3.121094 -60.511719 L 13.101562 -60.511719 L 13.101562 -26.203125 C 13.101562 -6.082031 23.707031 1.714844 41.484375 1.714844 Z M 41.484375 1.714844 "/></g></g></g></svg>